<svg xmlns="http://www.w3.org/2000/svg" version="1.1" xmlns:xlink="http://www.w3.org/1999/xlink" width="1000" height="1000"><g clip-path="url(#SvgjsClipPath1658)"><rect width="1000" height="1000" fill="#e2e0e0"></rect><g transform="matrix(3.8095238095238093,0,0,3.8095238095238093,100,100)"><svg xmlns="http://www.w3.org/2000/svg" version="1.1" xmlns:xlink="http://www.w3.org/1999/xlink" width="210mm" height="210mm"><svg width="210mm" height="210mm" viewBox="0 0 210 210" version="1.1" id="svg1" inkscape:version="1.4.2 (f4327f4, 2025-05-13)" sodipodi:docname="drawing.svg" xmlns:inkscape="http://www.inkscape.org/namespaces/inkscape" xmlns:sodipodi="http://sodipodi.sourceforge.net/DTD/sodipodi-0.dtd" xmlns="http://www.w3.org/2000/svg" xmlns:svg="http://www.w3.org/2000/svg">
  <sodipodi:namedview id="namedview1" pagecolor="#ffffff" bordercolor="#000000" borderopacity="0.25" inkscape:showpageshadow="2" inkscape:pageopacity="0.0" inkscape:pagecheckerboard="0" inkscape:deskcolor="#d1d1d1" inkscape:document-units="mm" inkscape:zoom="1.0565516" inkscape:cx="406.03791" inkscape:cy="481.75593" inkscape:window-width="2560" inkscape:window-height="1494" inkscape:window-x="-11" inkscape:window-y="-11" inkscape:window-maximized="1" inkscape:current-layer="layer1"></sodipodi:namedview>
  <defs id="defs1">
    <inkscape:perspective sodipodi:type="inkscape:persp3d" inkscape:vp_x="-20.844047 : 167.89564 : 1" inkscape:vp_y="0 : 471.9938 : 0" inkscape:vp_z="77.53389 : 167.89564 : 1" inkscape:persp3d-origin="28.344925 : 151.37586 : 1" id="perspective1"></inkscape:perspective>
    <inkscape:perspective sodipodi:type="inkscape:persp3d" inkscape:vp_x="-51.409327 : 148.07872 : 1" inkscape:vp_y="0 : 788.3222 : 0" inkscape:vp_z="103.36414 : 148.07872 : 1" inkscape:persp3d-origin="25.977407 : 109.05677 : 1" id="perspective45"></inkscape:perspective>
  <clipPath id="SvgjsClipPath1658"><rect width="1000" height="1000" x="0" y="0" rx="350" ry="350"></rect></clipPath></defs>
  <g inkscape:label="Layer 1" inkscape:groupmode="layer" id="layer1">
    <g sodipodi:type="inkscape:box3d" id="g55" style="fill:#000000" inkscape:perspectiveid="#perspective1" inkscape:corner0="1.3038073 : 0.12250001 : 0 : 1" inkscape:corner7="-0.0016834787 : 0.010846162 : 1.7958625 : 1" inkscape:highlight-color="#cf5a5a">
      <path sodipodi:type="inkscape:box3dside" id="path60" style="fill:#e9e9ff;fill-rule:evenodd;stroke:none;stroke-linejoin:round" inkscape:box3dsidetype="11" d="M 34.248737,32.030504 59.989079,27.323819 V 46.184431 L 34.248737,44.88518 Z" points="59.989079,27.323819 59.989079,46.184431 34.248737,44.88518 34.248737,32.030504 "></path>
      <path sodipodi:type="inkscape:box3dside" id="path55" style="fill:#353564;fill-rule:evenodd;stroke:none;stroke-linejoin:round" inkscape:box3dsidetype="6" d="M 0.50711897,24.177741 V 47.052886 L 34.248737,44.88518 V 32.030504 Z" points="0.50711897,47.052886 34.248737,44.88518 34.248737,32.030504 0.50711897,24.177741 "></path>
      <path sodipodi:type="inkscape:box3dside" id="path59" style="fill:#afafde;fill-rule:evenodd;stroke:none;stroke-linejoin:round" inkscape:box3dsidetype="13" d="M 0.50711897,47.052886 28.427874,53.52404 59.989079,46.184431 34.248737,44.88518 Z" points="28.427874,53.52404 59.989079,46.184431 34.248737,44.88518 0.50711897,47.052886 "></path>
      <path sodipodi:type="inkscape:box3dside" id="path56" style="fill:#4d4d9f;fill-rule:evenodd;stroke:none;stroke-linejoin:round" inkscape:box3dsidetype="5" d="M 0.50711897,24.177741 28.427874,0.73524595 59.989079,27.323819 34.248737,32.030504 Z" points="28.427874,0.73524595 59.989079,27.323819 34.248737,32.030504 0.50711897,24.177741 "></path>
      <path sodipodi:type="inkscape:box3dside" id="path58" style="fill:#d7d7ff;fill-rule:evenodd;stroke:none;stroke-linejoin:round" inkscape:box3dsidetype="14" d="M 28.427874,0.73524595 V 53.52404 L 59.989079,46.184431 V 27.323819 Z" points="28.427874,53.52404 59.989079,46.184431 59.989079,27.323819 28.427874,0.73524595 "></path>
      <path sodipodi:type="inkscape:box3dside" id="path57" style="fill:#8686bf;fill-rule:evenodd;stroke:none;stroke-linejoin:round" inkscape:box3dsidetype="3" d="M 0.50711897,24.177741 28.427874,0.73524595 V 53.52404 L 0.50711897,47.052886 Z" points="28.427874,0.73524595 28.427874,53.52404 0.50711897,47.052886 0.50711897,24.177741 "></path>
    </g>
    <g sodipodi:type="inkscape:box3d" id="g27" style="fill:#aa4400" inkscape:perspectiveid="#perspective45" inkscape:corner0="-0.093346423 : 0.090770792 : 0 : 1" inkscape:corner7="-0.1899057 : 0.076667393 : 0.25 : 1">
      <path sodipodi:type="inkscape:box3dside" id="path32" style="fill:#e9e9ff;fill-rule:evenodd;stroke:none;stroke-linejoin:round" inkscape:box3dsidetype="11" d="m 48.949246,33.792992 9.141216,-2.562081 v 10.487768 l -9.141216,1.686545 z" points="58.090462,31.230911 58.090462,41.718679 48.949246,43.405224 48.949246,33.792992 "></path>
      <path sodipodi:type="inkscape:box3dside" id="path27" style="fill:#353564;fill-rule:evenodd;stroke:none;stroke-linejoin:round" inkscape:box3dsidetype="6" d="m 33.944921,26.036919 v 12.262702 l 15.004325,5.105603 v -9.612232 z" points="33.944921,38.299621 48.949246,43.405224 48.949246,33.792992 33.944921,26.036919 "></path>
      <path sodipodi:type="inkscape:box3dside" id="path28" style="fill:#4d4d9f;fill-rule:evenodd;stroke:none;stroke-linejoin:round" inkscape:box3dsidetype="5" d="m 33.944921,26.036919 10.173809,-4.27724 13.971732,9.471232 -9.141216,2.562081 z" points="44.11873,21.759679 58.090462,31.230911 48.949246,33.792992 33.944921,26.036919 "></path>
      <path sodipodi:type="inkscape:box3dside" id="path31" style="fill:#afafde;fill-rule:evenodd;stroke:none;stroke-linejoin:round" inkscape:box3dsidetype="13" d="m 33.944921,38.299621 10.173809,-2.815586 13.971732,6.234644 -9.141216,1.686545 z" points="44.11873,35.484035 58.090462,41.718679 48.949246,43.405224 33.944921,38.299621 "></path>
      <path sodipodi:type="inkscape:box3dside" id="path30" style="fill:#d7d7ff;fill-rule:evenodd;stroke:none;stroke-linejoin:round" inkscape:box3dsidetype="14" d="m 44.11873,21.759679 v 13.724356 l 13.971732,6.234644 V 31.230911 Z" points="44.11873,35.484035 58.090462,41.718679 58.090462,31.230911 44.11873,21.759679 "></path>
      <path sodipodi:type="inkscape:box3dside" id="path29" style="fill:#8686bf;fill-rule:evenodd;stroke:none;stroke-linejoin:round" inkscape:box3dsidetype="3" d="M 33.944921,26.036919 44.11873,21.759679 V 35.484035 L 33.944921,38.299621 Z" points="44.11873,21.759679 44.11873,35.484035 33.944921,38.299621 33.944921,26.036919 "></path>
    </g>
  </g>
</svg></svg></g></g></svg>